<?xml version="1.0"?>
<svg xmlns="http://www.w3.org/2000/svg" xmlns:xlink="http://www.w3.org/1999/xlink" xmlns:svgjs="http://svgjs.com/svgjs" version="1.1" width="512" height="512" x="0" y="0" viewBox="0 0 512.00012 512" style="enable-background:new 0 0 512 512" xml:space="preserve" class=""><g><path xmlns="http://www.w3.org/2000/svg" d="m92 106v-69c0-11.046875 8.953125-20 20-20s20 8.953125 20 20v49.710938c15.671875-21.585938 35.359375-40.105469 58.125-54.460938 33.460938-21.097656 72.144531-32.25 111.875-32.25 115.792969 0 210 94.207031 210 210 0 11.046875-8.953125 20-20 20s-20-8.953125-20-20c0-93.738281-76.261719-170-170-170-57.789062 0-110.382812 28.667969-141.679688 76h50.679688c11.046875 0 20 8.953125 20 20s-8.953125 20-20 20h-69c-27.570312 0-50-22.429688-50-50zm370 158h-69c-11.046875 0-20 8.953125-20 20s8.953125 20 20 20h50.679688c-31.296876 47.332031-83.890626 76-141.679688 76-93.738281 0-170-76.261719-170-170 0-11.046875-8.953125-20-20-20s-20 8.953125-20 20c0 50.945312 18.238281 97.703125 48.523438 134.105469l-134.617188 133.703125c-7.835938 7.785156-7.878906 20.449218-.097656 28.285156 3.910156 3.9375 9.050781 5.90625 14.191406 5.90625 5.09375 0 10.191406-1.9375 14.09375-5.808594l134.800781-133.886718c36.257813 29.789062 82.628907 47.695312 133.105469 47.695312 39.730469 0 78.414062-11.152344 111.875-32.25 22.765625-14.355469 42.453125-32.875 58.125-54.460938v49.710938c0 11.046875 8.953125 20 20 20s20-8.953125 20-20v-69c0-27.570312-22.429688-50-50-50zm0 0" fill="#1e1e1e" data-original="#1e1e1e" style=""/></g></svg>
